<?xml version="1.0" standalone="no"?>
<!DOCTYPE svg PUBLIC "-//W3C//DTD SVG 20010904//EN"
 "http://www.w3.org/TR/2001/REC-SVG-20010904/DTD/svg10.dtd">
<svg version="1.0" xmlns="http://www.w3.org/2000/svg"
 width="630.000000pt" height="541.000000pt" viewBox="0 0 630.000000 541.000000"
 preserveAspectRatio="xMidYMid meet">

<g transform="translate(0.000000,541.000000) scale(0.100000,-0.100000)"
fill="#000000" stroke="none">
<path fill="#eee" d="M3624 5110 c-12 -5 -29 -19 -38 -32 -15 -20 -16 -193 -16 -1915 l0
-1892 24 -28 c22 -25 31 -28 85 -28 50 0 65 4 83 23 22 22 23 29 28 270 l5
247 27 -50 c40 -76 91 -143 165 -218 188 -190 442 -286 753 -287 689 -1 1134
488 1167 1280 19 480 -109 874 -371 1135 -137 137 -280 217 -485 273 -89 24
-111 26 -311 26 -189 0 -224 -3 -292 -22 -292 -81 -501 -241 -629 -482 l-24
-45 -5 845 c-3 465 -9 853 -14 863 -19 39 -99 59 -152 37z m1326 -1417 c261
-52 475 -222 598 -475 79 -163 119 -341 129 -578 23 -561 -177 -985 -542
-1151 -139 -63 -202 -74 -405 -73 -172 0 -191 2 -275 28 -135 41 -235 98 -333
190 -100 95 -159 175 -212 288 -84 180 -120 370 -120 638 0 286 37 470 135
665 190 381 577 558 1025 468z"/>
<path fill="#eee" d="M1413 3906 c-308 -59 -556 -235 -694 -496 l-24 -45 -5 248 -5 249
-28 24 c-43 37 -118 34 -158 -5 l-29 -29 0 -1782 0 -1782 29 -29 c40 -39 115
-42 158 -5 l28 24 5 739 5 738 27 -50 c40 -76 91 -143 165 -218 187 -189 441
-286 750 -287 202 0 366 35 528 115 188 92 326 220 442 411 248 407 272 1111
53 1569 -146 306 -387 507 -709 592 -82 22 -122 26 -281 29 -127 2 -207 -1
-257 -10z m437 -213 c261 -52 475 -222 598 -475 79 -163 119 -341 129 -578 23
-561 -177 -985 -542 -1151 -139 -63 -202 -74 -405 -73 -172 0 -191 2 -275 28
-135 41 -235 98 -333 190 -100 95 -159 175 -212 288 -84 180 -120 370 -120
638 0 286 37 470 135 665 190 381 577 558 1025 468z"/>
</g>
</svg>
