<?xml version="1.0" standalone="no"?>
<!DOCTYPE svg PUBLIC "-//W3C//DTD SVG 20010904//EN"
 "http://www.w3.org/TR/2001/REC-SVG-20010904/DTD/svg10.dtd">
<svg version="1.0" xmlns="http://www.w3.org/2000/svg"
 width="300.000000pt" height="300.000000pt" viewBox="0 0 300.000000 300.000000"
 preserveAspectRatio="xMidYMid meet">
<metadata>
Created by potrace 1.14, written by Peter Selinger 2001-2017
</metadata>
<g transform="translate(0.000000,300.000000) scale(0.100000,-0.100000)"
fill="#000000" stroke="none">
<path d="M2363 2652 c-25 -3 -31 -7 -26 -20 5 -14 3 -13 -9 2 -14 18 -16 17
-37 -12 -19 -27 -25 -30 -46 -22 -19 7 -27 5 -35 -8 -11 -16 -11 -16 -6 1 5
16 -10 23 -38 18 -5 -1 -13 4 -17 11 -6 9 -9 7 -9 -7 0 -12 -3 -16 -8 -9 -4 7
-27 12 -52 11 -25 0 -55 2 -67 6 -14 3 -23 1 -23 -5 0 -7 -5 -7 -14 1 -11 9
-17 8 -30 -4 -8 -9 -18 -16 -20 -16 -23 -3 -46 -13 -46 -21 0 -6 -11 -3 -25 6
-23 15 -25 15 -25 -1 0 -14 -2 -15 -9 -4 -5 8 -18 12 -31 8 -15 -4 -19 -2 -11
6 7 9 2 12 -15 12 -13 0 -24 -3 -24 -7 0 -5 -5 -8 -11 -8 -5 0 -7 5 -3 12 4 6
3 9 -2 5 -5 -3 -26 3 -47 13 -20 10 -34 14 -31 8 4 -6 -1 -8 -12 -4 -27 8 -49
-27 -28 -44 12 -11 14 -9 12 10 -2 17 2 23 19 25 12 1 22 -1 21 -4 -2 -19 4
-24 12 -11 8 13 12 12 30 -5 l20 -21 -22 -1 c-16 -2 -19 0 -9 6 9 6 10 11 2
15 -6 4 -14 1 -17 -8 -5 -12 -9 -11 -26 6 -11 11 -22 17 -25 15 -2 -3 5 -15
16 -26 12 -12 21 -27 20 -33 0 -10 -2 -10 -6 0 -2 6 -9 10 -14 7 -5 -4 -6 2
-2 12 6 15 4 16 -8 6 -12 -10 -18 -10 -28 0 -12 12 -33 15 -96 17 -16 1 -35 6
-41 11 -8 6 -14 4 -18 -6 -6 -18 -26 -11 -26 8 0 7 4 6 10 -3 6 -9 10 -10 10
-3 0 22 -21 25 -42 6 -12 -10 -18 -12 -14 -5 7 12 -4 16 -31 13 -7 -1 -13 3
-13 10 0 8 -4 8 -15 -1 -12 -10 -18 -10 -30 0 -15 13 -21 2 -8 -16 5 -5 1 -2
-7 6 -12 12 -24 14 -58 7 -23 -4 -40 -12 -37 -18 3 -5 -1 -6 -9 -3 -10 4 -16
1 -16 -7 0 -11 -2 -11 -9 0 -11 18 -24 20 -126 25 -44 2 -86 -1 -93 -7 -7 -5
-32 -7 -57 -4 -41 4 -44 3 -33 -12 10 -13 9 -12 -8 2 -11 9 -24 14 -27 10 -4
-3 -13 2 -21 12 -12 17 -16 17 -30 6 -14 -12 -16 -12 -10 4 5 13 3 16 -7 13
-8 -3 -13 -11 -11 -17 1 -7 -2 -10 -7 -7 -5 4 -15 0 -23 -7 -7 -8 -19 -12 -26
-9 -6 2 -12 -1 -12 -7 0 -7 -8 -7 -26 -1 -14 6 -30 7 -36 4 -6 -4 -17 1 -24
11 -12 17 -14 17 -20 1 -4 -10 -11 -13 -18 -8 -9 7 -51 9 -58 2 -12 -9 -47 -6
-64 5 -18 12 -23 11 -38 -3 -10 -9 -16 -12 -15 -7 3 20 -1 35 -12 35 -5 0 -7
-4 -4 -10 3 -5 1 -10 -4 -10 -6 0 -11 6 -11 14 0 14 -22 13 -60 -1 -8 -4 -18
-5 -22 -5 -5 1 -8 -3 -8 -9 0 -5 -3 -8 -7 -6 -5 3 -14 -1 -21 -9 -10 -11 -10
-14 0 -14 12 -1 -48 -32 -65 -34 -13 -2 -26 -28 -20 -43 3 -9 0 -11 -10 -7 -8
3 -18 0 -23 -7 -4 -8 -3 -10 4 -5 7 4 12 2 12 -3 0 -6 -4 -11 -10 -11 -5 0
-15 -10 -21 -22 -11 -21 -11 -22 5 -9 14 12 16 12 10 -3 -3 -9 -14 -16 -23
-17 -12 0 -12 -2 4 -9 17 -7 17 -9 3 -9 -11 -1 -15 -6 -12 -16 5 -11 1 -14
-12 -9 -14 4 -15 3 -6 -3 7 -6 15 -25 17 -43 4 -32 28 -59 54 -60 8 0 11 -6 7
-16 -3 -8 -2 -12 4 -9 13 8 56 -40 82 -93 11 -23 29 -49 40 -57 11 -7 17 -18
14 -23 -3 -5 1 -15 10 -22 8 -7 13 -19 10 -26 -3 -9 1 -11 12 -7 13 5 15 4 6
-8 -14 -19 -11 -45 6 -41 7 2 17 -3 21 -10 13 -20 11 -34 -3 -20 -16 16 -25
15 -32 -4 -3 -8 -2 -13 3 -10 4 3 16 -3 25 -13 10 -10 14 -21 9 -23 -4 -3 -3
-4 4 -2 6 1 14 -7 17 -19 4 -18 8 -19 18 -9 11 11 9 16 -8 30 -26 22 -25 47 3
48 12 1 20 -2 18 -7 -3 -4 3 -10 12 -12 16 -4 16 -5 1 -6 -9 0 -20 3 -23 9 -3
5 -11 10 -16 10 -6 0 -1 -14 11 -31 12 -16 20 -33 16 -36 -7 -7 41 -53 55 -53
5 0 8 -3 8 -7 -5 -28 1 -35 19 -22 16 12 16 12 0 -6 -16 -17 -16 -19 3 -36 11
-10 20 -20 19 -24 -1 -3 4 -20 11 -38 6 -18 11 -35 10 -39 0 -5 5 -9 11 -10
36 -4 44 -3 51 7 5 6 7 4 4 -5 -2 -8 -10 -14 -16 -12 -6 1 -11 -5 -11 -13 0
-17 16 -20 25 -5 8 13 54 9 52 -5 -1 -5 7 -8 18 -7 17 4 17 1 -5 -17 -21 -17
-22 -20 -7 -21 10 0 15 -4 12 -10 -3 -5 -1 -10 5 -10 6 0 9 -4 6 -8 -2 -4 4
-13 15 -20 21 -14 26 -3 7 17 -9 9 -9 12 -1 7 6 -3 13 -3 16 1 2 5 2 2 1 -4
-2 -7 2 -13 8 -13 9 0 9 -3 0 -12 -17 -17 -15 -33 2 -19 18 15 34 -5 17 -22
-6 -6 -11 -16 -11 -21 0 -6 5 -5 12 2 7 7 17 12 22 12 6 0 4 -5 -5 -10 -16 -9
-17 -35 -4 -75 4 -14 2 -13 -8 4 -8 14 -12 32 -9 40 5 14 3 14 -11 3 -14 -12
-16 -11 -12 9 3 12 9 27 15 33 5 5 10 14 10 19 0 14 -21 -4 -31 -27 l-10 -21
5 22 c5 30 -18 62 -34 47 -9 -9 -9 -14 1 -19 8 -5 10 -4 5 3 -4 7 -2 12 3 12
11 0 15 -12 12 -42 -1 -9 3 -19 9 -23 6 -3 8 -11 5 -16 -4 -5 1 -12 9 -15 9
-3 13 -10 10 -15 -3 -5 0 -9 6 -9 6 0 8 -4 5 -10 -3 -5 -1 -10 4 -10 6 0 11
-9 11 -21 0 -11 4 -18 9 -15 5 4 12 -8 16 -25 4 -17 13 -33 21 -36 8 -3 14
-14 14 -24 0 -10 4 -19 9 -19 5 0 8 -8 6 -17 -4 -29 52 -102 73 -95 7 2 12 -6
12 -22 0 -14 4 -26 8 -26 5 0 9 -7 10 -15 1 -8 3 -22 4 -30 1 -8 5 -15 10 -15
4 0 8 -6 8 -14 0 -21 17 -28 39 -17 15 8 19 8 17 -4 -1 -8 -6 -18 -11 -22 -4
-4 -5 -2 -1 5 4 6 2 12 -3 12 -26 0 -4 -37 24 -42 11 -1 26 -9 33 -16 8 -7 18
-10 23 -7 5 4 6 -1 3 -9 -3 -9 -1 -16 5 -16 6 0 11 -8 11 -17 0 -15 2 -16 10
-3 7 10 10 11 10 2 0 -7 -7 -15 -15 -18 -16 -7 -15 -28 3 -60 8 -15 18 -20 35
-17 14 3 28 0 31 -6 5 -7 -1 -10 -15 -8 -26 3 -37 -18 -13 -27 15 -6 15 -4 3
11 -11 15 -10 15 9 -1 12 -11 22 -26 21 -35 0 -12 -2 -11 -8 3 -5 13 -10 16
-14 8 -4 -6 11 -30 34 -54 47 -49 68 -87 61 -107 -3 -10 0 -12 11 -8 12 4 14
2 10 -10 -4 -10 -2 -14 4 -10 7 5 9 0 6 -12 -3 -12 3 -24 17 -34 14 -10 20
-22 17 -31 -7 -17 8 -22 18 -6 3 6 11 10 18 10 6 0 1 -7 -11 -16 -22 -15 -22
-17 -6 -35 9 -10 21 -16 27 -12 5 3 7 1 4 -4 -4 -6 4 -18 18 -27 14 -9 25 -13
25 -9 0 5 4 1 10 -7 5 -8 12 -11 15 -8 11 11 -6 30 -22 24 -8 -3 -11 -2 -8 3
3 6 14 9 25 8 10 -1 16 -5 14 -9 -3 -4 -1 -8 5 -8 6 0 19 -9 29 -20 11 -11 29
-23 42 -25 19 -4 21 -2 11 8 -6 6 -17 12 -23 12 -15 0 -20 17 -9 34 6 9 14 11
26 4 13 -8 14 -12 6 -18 -9 -5 -6 -11 9 -22 24 -17 41 -9 20 10 -10 10 -11 9
-5 -2 5 -10 4 -12 -4 -7 -8 5 -7 13 3 28 8 11 12 28 9 37 -4 11 -1 10 10 -4 9
-11 19 -16 24 -11 4 5 2 11 -4 13 -7 3 -13 9 -13 15 0 7 5 6 14 -1 14 -12 49
-5 41 8 -8 15 60 6 73 -9 10 -13 11 -13 6 3 -5 13 -2 16 12 11 18 -5 18 -5 2
6 -10 6 -18 16 -18 23 0 8 3 8 8 2 4 -5 14 -11 22 -13 11 -2 11 1 -2 11 -18
14 -26 33 -10 23 4 -2 14 0 22 5 13 8 13 10 0 18 -8 5 -18 7 -22 5 -4 -3 -8
-1 -8 5 0 5 -6 11 -12 14 -7 2 -4 3 6 1 33 -5 62 29 34 39 -7 2 -6 3 3 2 9 -1
24 6 33 16 9 11 11 19 5 19 -6 0 -8 7 -5 16 4 9 1 24 -6 33 -12 14 -11 15 5 2
10 -8 16 -20 13 -27 -3 -7 -1 -16 5 -20 6 -4 4 -13 -6 -24 -13 -14 -13 -19 -3
-23 7 -2 9 -8 5 -13 -4 -5 -12 -3 -16 5 -6 10 -10 9 -15 -5 -4 -10 -4 -15 0
-12 4 4 16 2 28 -4 11 -6 18 -7 14 -3 -4 4 0 14 10 22 11 8 12 12 3 11 -7 -2
-16 3 -19 11 -2 8 0 11 5 8 16 -10 50 20 49 43 0 11 -5 19 -11 18 -5 -2 -10
-13 -9 -25 1 -13 -3 -23 -7 -23 -9 0 -13 16 -10 34 1 4 -4 14 -10 22 -8 10 -8
14 0 14 6 0 11 -5 11 -11 0 -5 5 -7 10 -4 6 4 8 10 6 14 -3 4 0 13 6 21 8 13
9 12 5 -2 -3 -9 1 -19 9 -22 9 -3 12 -1 9 4 -3 6 1 10 10 10 9 0 13 5 10 10
-4 6 -11 7 -17 4 -7 -4 -8 -2 -4 4 7 11 -5 16 -31 13 -13 -2 -12 24 2 36 4 4
5 3 2 -3 -4 -7 0 -15 9 -18 22 -9 26 -8 18 6 -4 7 -3 8 5 4 6 -4 9 -11 6 -16
-7 -11 26 -29 43 -23 17 6 15 20 -3 20 -8 0 -11 -5 -8 -10 3 -6 1 -7 -5 -3
-24 14 -11 26 24 21 33 -4 36 -2 54 39 10 25 27 49 37 55 15 8 15 10 2 11 -9
0 -16 6 -16 14 0 9 6 12 16 8 14 -5 14 -4 1 13 -10 13 -11 16 -2 11 18 -11 62
31 55 52 -4 10 -2 13 5 8 7 -4 22 11 39 40 16 26 36 55 45 65 9 10 26 39 38
64 11 25 25 45 30 45 6 0 17 18 26 40 9 22 20 40 24 40 5 0 11 14 15 31 4 17
14 33 22 36 8 3 19 16 24 29 4 13 15 24 24 24 8 0 15 5 15 11 0 5 4 8 9 5 5
-4 7 3 4 14 -4 16 -2 19 12 13 13 -4 16 -3 11 6 -5 7 3 22 21 38 15 14 22 22
16 19 -19 -10 -16 2 16 67 15 31 31 54 36 50 4 -5 5 -3 1 4 -3 6 -2 14 4 18 6
4 8 11 5 16 -4 5 -2 9 3 9 5 0 19 9 32 20 13 11 20 20 16 20 -3 0 1 11 10 25
9 14 21 22 28 18 6 -4 6 -1 -2 9 -10 13 -8 18 13 32 14 9 25 21 25 28 0 6 12
22 26 35 14 13 23 30 20 38 -3 8 -1 17 5 20 5 4 7 11 3 16 -3 5 0 8 7 7 7 -2
18 8 25 22 14 26 47 70 77 101 9 11 17 23 17 29 0 5 7 13 16 18 14 8 9 14 -27
39 -24 17 -47 30 -51 29 -3 0 -10 3 -15 8 -5 6 -2 6 6 1 11 -6 13 -4 8 8 -4
11 -2 14 9 10 7 -3 14 0 14 6 0 6 -4 11 -10 11 -5 0 -10 5 -10 11 0 8 5 7 15
-1 9 -7 14 -18 12 -25 -3 -6 4 -12 14 -12 11 -1 19 5 19 13 0 8 5 14 11 14 5
0 7 -6 3 -12 -5 -9 -3 -9 9 1 18 14 13 36 -5 25 -7 -4 -8 -2 -4 5 4 6 16 9 25
6 24 -7 50 22 28 31 -25 9 -17 27 36 85 17 18 17 20 1 17 -9 -2 -19 2 -21 9
-3 8 3 11 17 8 12 -2 18 0 14 6 -3 5 0 17 8 26 8 10 8 14 1 10 -7 -4 -18 2
-27 15 -19 27 -11 39 9 12 8 -10 15 -14 15 -8 0 6 -9 19 -20 29 -19 17 -26 12
-21 -17 1 -11 -11 -10 -29 2 -12 8 -12 10 5 10 19 1 19 1 2 15 -17 12 -15 13
17 11 20 -2 34 -1 31 2 -2 3 3 11 13 19 16 12 16 13 -2 7 -16 -6 -17 -4 -8 13
6 11 9 28 7 39 -2 10 -4 22 -4 25 -1 9 -31 6 -31 -3 0 -5 -6 -6 -12 -2 -10 6
-10 5 -1 -7 10 -12 10 -18 0 -29 -10 -10 -9 -11 2 -5 10 5 12 4 7 -4 -4 -6
-12 -8 -18 -5 -6 4 -9 1 -6 -7 3 -8 10 -15 16 -15 7 -1 18 -2 25 -3 8 -1 7 -4
-3 -11 -9 -5 -18 -6 -24 0 -5 5 -16 5 -26 0 -12 -6 -17 -5 -17 5 0 7 7 11 15
7 10 -3 13 -1 8 7 -4 6 -3 18 4 26 8 10 6 17 -12 29 -12 9 -18 16 -13 16 6 0
2 5 -7 11 -24 13 -23 26 3 40 15 7 19 8 15 0 -4 -7 -1 -9 8 -5 10 4 14 0 13
-14 0 -12 -5 -18 -9 -16 -5 3 -6 9 -4 13 3 3 -4 7 -15 7 -24 0 -24 -1 0 -25
17 -17 21 -18 32 -5 6 8 8 14 5 14 -4 0 -2 8 3 18 6 11 6 24 0 33 -6 10 -9 10
-9 2 0 -7 -5 -13 -11 -13 -5 0 -7 6 -3 13 5 8 2 8 -9 -2 -9 -7 -17 -10 -17 -6
0 4 -6 2 -14 -4 -18 -15 -34 5 -17 22 9 9 10 7 5 -8 -7 -17 -5 -18 8 -8 8 7
18 10 21 6 4 -3 7 -1 7 5 0 7 -7 12 -15 12 -8 0 -15 4 -15 8 0 5 -7 9 -15 9
-8 0 -12 -5 -9 -11 3 -6 -1 -3 -10 8 -9 11 -19 15 -28 10 -21 -13 -37 -15
-148 -18 -90 -2 -111 1 -145 18 -23 12 -54 20 -72 18z m12 -32 c-3 -5 -12 -10
-18 -10 -7 0 -6 4 3 10 19 12 23 12 15 0z m355 -10 c-12 -23 -16 -24 -26 -8
-4 6 -3 8 3 5 6 -4 13 0 17 8 3 8 8 15 11 15 3 0 1 -9 -5 -20z m-2427 -5 c4
-8 3 -16 -1 -19 -4 -3 -9 4 -9 15 -2 23 3 25 10 4z m638 -18 c-10 -9 -11 -8
-5 6 3 10 9 15 12 12 3 -3 0 -11 -7 -18z m1089 17 c0 -8 -19 -13 -24 -6 -3 5
1 9 9 9 8 0 15 -2 15 -3z m305 -4 c3 -6 -1 -7 -9 -4 -18 7 -21 14 -7 14 6 0
13 -4 16 -10z m412 -12 c-3 -8 -6 -5 -6 6 -1 11 2 17 5 13 3 -3 4 -12 1 -19z
m-1680 -3 c0 -8 -4 -12 -9 -9 -5 3 -6 10 -3 15 9 13 12 11 12 -6z m307 -1 c5
-14 4 -15 -9 -4 -17 14 -19 20 -6 20 5 0 12 -7 15 -16z m792 -2 c-3 -3 0 -12
6 -21 10 -13 10 -14 -2 -4 -16 15 -23 46 -8 37 5 -3 7 -9 4 -12z m-1419 -7 c0
-8 -4 -12 -9 -9 -5 3 -6 10 -3 15 9 13 12 11 12 -6z m667 7 c3 -5 -1 -9 -9 -9
-8 0 -12 4 -9 9 3 4 7 8 9 8 2 0 6 -4 9 -8z m86 -9 c0 -3 -9 -3 -20 0 -14 3
-20 0 -20 -11 0 -8 -3 -13 -6 -9 -14 13 5 35 25 30 12 -3 21 -8 21 -10z m-195
-2 c3 -5 2 -12 -3 -15 -5 -3 -9 1 -9 9 0 17 3 19 12 6z m243 -22 c-3 -8 -7 -3
-11 10 -4 17 -3 21 5 13 5 -5 8 -16 6 -23z m-543 11 c3 -5 1 -10 -4 -10 -6 0
-11 5 -11 10 0 6 2 10 4 10 3 0 8 -4 11 -10z m579 -5 c-4 -8 -8 -15 -10 -15
-2 0 -4 7 -4 15 0 8 4 15 10 15 5 0 7 -7 4 -15z m191 5 c3 -6 -1 -7 -9 -4 -18
7 -21 14 -7 14 6 0 13 -4 16 -10z m315 4 c0 -8 -19 -13 -24 -6 -3 5 1 9 9 9 8
0 15 -2 15 -3z m-610 -19 c-7 -8 -17 -15 -23 -15 -6 0 -2 7 9 15 25 19 30 19
14 0z m-125 -5 c3 -6 -1 -7 -9 -4 -18 7 -21 14 -7 14 6 0 13 -4 16 -10z m172
-12 c2 -17 0 -19 -7 -8 -5 8 -6 18 -4 22 8 12 10 10 11 -14z m-1380 -20 c-3
-8 -6 -5 -6 6 -1 11 2 17 5 13 3 -3 4 -12 1 -19z m53 17 c0 -2 -6 -8 -13 -14
-10 -8 -14 -7 -14 2 0 8 6 14 14 14 7 0 13 -1 13 -2z m25 -5 c3 -5 1 -10 -4
-10 -6 0 -11 5 -11 10 0 6 2 10 4 10 3 0 8 -4 11 -10z m60 1 c3 -5 2 -12 -3
-15 -5 -3 -9 1 -9 9 0 17 3 19 12 6z m1218 -6 c4 -8 3 -16 -1 -19 -4 -3 -9 4
-9 15 -2 23 3 25 10 4z m64 -2 c0 -9 -4 -10 -14 -2 -7 6 -13 12 -13 14 0 1 6
2 13 2 8 0 14 -6 14 -14z m218 -1 c-3 -3 -11 0 -18 7 -9 10 -8 11 6 5 10 -3
15 -9 12 -12z m1011 6 c3 -4 -1 -5 -10 -4 -8 1 -18 5 -22 8 -3 4 1 5 10 4 8
-1 18 -5 22 -8z m-1171 -7 c3 -5 2 -12 -3 -15 -5 -3 -9 1 -9 9 0 17 3 19 12 6z
m1270 -26 c-3 -29 -12 -42 -22 -31 -4 4 -1 11 7 16 8 6 10 10 4 10 -6 0 -11 7
-11 15 0 8 6 15 13 15 7 0 11 -10 9 -25z m-70 -6 c-4 -5 -12 -9 -18 -8 -9 0
-8 2 1 6 6 2 9 10 6 15 -4 7 -2 8 5 4 6 -4 9 -12 6 -17z m-2655 -3 c-7 -7 -13
-7 -20 0 -6 6 -3 10 10 10 13 0 16 -4 10 -10z m-34 -18 c4 -7 3 -8 -4 -4 -8 5
-12 0 -12 -13 0 -11 -4 -23 -10 -26 -5 -3 -8 1 -5 9 3 9 7 23 10 31 5 18 11
19 21 3z m2658 4 c3 -5 -1 -9 -9 -9 -8 0 -12 4 -9 9 3 4 7 8 9 8 2 0 6 -4 9
-8z m-2623 -19 c13 -16 12 -17 -3 -4 -10 7 -18 15 -18 17 0 8 8 3 21 -13z
m1359 -3 c0 -5 -2 -10 -4 -10 -3 0 -8 5 -11 10 -3 6 -1 10 4 10 6 0 11 -4 11
-10z m-1383 -47 c0 -8 -4 -10 -12 -3 -7 5 -16 6 -20 2 -5 -4 -5 -2 -2 4 9 15
34 13 34 -3z m-42 -13 c3 -5 2 -10 -4 -10 -5 0 -13 5 -16 10 -3 6 -2 10 4 10
5 0 13 -4 16 -10z m2745 -32 c0 -7 4 -7 14 1 18 15 39 -8 26 -29 -9 -13 -10
-13 -10 0 -1 12 -3 11 -11 -3 -7 -13 -7 -22 0 -31 8 -10 6 -20 -10 -41 -21
-25 -23 -26 -33 -9 -6 11 -11 37 -12 60 0 36 2 41 20 37 12 -2 15 -1 8 3 -6 3
-9 11 -5 17 4 6 0 8 -9 5 -8 -4 -15 0 -15 7 0 10 5 11 19 4 10 -5 18 -15 18
-21z m-2748 -22 c-3 -5 5 -7 16 -4 12 4 20 2 16 -3 -8 -14 -34 -11 -40 6 -4 8
-9 13 -13 11 -4 -3 -7 4 -8 14 -2 18 -1 18 16 2 10 -9 16 -21 13 -26z m25 30
c0 -8 -6 -12 -15 -9 -11 5 -11 7 0 14 7 5 13 9 14 9 0 0 1 -6 1 -14z m-7 -72
c0 -2 -9 0 -20 6 -11 6 -20 13 -20 16 0 2 9 0 20 -6 11 -6 20 -13 20 -16z m45
17 c-9 -8 -36 -10 -30 -2 2 4 11 8 20 8 8 0 13 -3 10 -6z m20 -61 c-3 -5 -12
-10 -18 -10 -7 0 -6 4 3 10 19 12 23 12 15 0z m2637 -19 c9 -11 14 -22 11 -25
-3 -3 2 -8 11 -12 22 -8 9 -26 -15 -19 -13 5 -23 -2 -37 -23 l-18 -30 -11 24
c-8 16 -8 22 0 17 6 -4 8 0 4 11 -6 14 -3 15 13 6 25 -13 27 5 3 19 -15 9 -16
12 -3 20 8 5 18 7 22 5 4 -3 8 -1 8 5 0 5 -6 12 -12 14 -7 3 -8 6 -3 6 6 1 18
-8 27 -18z m-2615 -6 c0 -8 -4 -12 -9 -9 -4 3 -8 9 -8 15 0 5 4 9 8 9 5 0 9
-7 9 -15z m20 -30 c0 -8 -4 -12 -9 -9 -5 3 -6 10 -3 15 9 13 12 11 12 -6z m15
-37 c-7 -7 -12 -8 -12 -2 0 14 12 26 19 19 2 -3 -1 -11 -7 -17z m28 -8 c0 -5
-5 -10 -11 -10 -5 0 -7 5 -4 10 3 6 8 10 11 10 2 0 4 -4 4 -10z m2424 2 c3 -5
-1 -9 -9 -9 -8 0 -12 4 -9 9 3 4 7 8 9 8 2 0 6 -4 9 -8z m-2411 -27 c-3 -9 -8
-14 -10 -11 -3 3 -2 9 2 15 9 16 15 13 8 -4z m8 -28 c-10 -9 -11 -8 -5 6 3 10
9 15 12 12 3 -3 0 -11 -7 -18z m23 -12 c-4 -8 -10 -15 -16 -15 -5 0 -7 -4 -3
-10 3 -5 13 -7 23 -4 13 5 14 4 4 -4 -11 -7 -11 -10 2 -15 8 -3 17 -1 20 6 3
9 5 9 5 0 1 -6 -3 -15 -9 -18 -6 -4 -3 -16 6 -31 9 -13 14 -27 11 -30 -3 -3
-8 4 -12 15 -5 17 -10 19 -25 11 -14 -8 -18 -6 -16 7 2 9 8 19 14 21 6 2 -3
17 -21 33 -18 17 -27 28 -21 25 7 -3 17 1 24 9 16 19 21 19 14 0z m23 -7 c-3
-8 -6 -5 -6 6 -1 11 2 17 5 13 3 -3 4 -12 1 -19z m51 -73 c-3 -3 -9 2 -12 12
-6 14 -5 15 5 6 7 -7 10 -15 7 -18z m-20 -10 c-3 -3 -9 2 -12 12 -6 14 -5 15
5 6 7 -7 10 -15 7 -18z m2412 15 c0 -5 -5 -10 -11 -10 -5 0 -7 5 -4 10 3 6 8
10 11 10 2 0 4 -4 4 -10z m-2380 -40 c-18 -12 -30 -13 -30 -2 0 4 10 9 22 9
18 2 20 0 8 -7z m30 -16 c0 -8 -19 -13 -24 -6 -3 5 1 9 9 9 8 0 15 -2 15 -3z
m-99 -21 c13 -16 12 -17 -3 -4 -10 7 -18 15 -18 17 0 8 8 3 21 -13z m99 -37
c0 -3 -4 -8 -10 -11 -5 -3 -10 -1 -10 4 0 6 5 11 10 11 6 0 10 -2 10 -4z m34
-4 c3 -5 -1 -9 -9 -9 -8 0 -12 4 -9 9 3 4 7 8 9 8 2 0 6 -4 9 -8z m-21 -36 c9
1 15 -1 12 -6 -8 -13 -38 -5 -43 11 -2 9 -1 10 5 3 4 -6 16 -10 26 -8z m2190
-68 c-2 -5 -10 -8 -18 -8 -8 0 -16 3 -18 8 -3 4 5 7 18 7 13 0 21 -3 18 -7z
m-2106 -91 c1 -11 1 -18 0 -16 -2 2 -8 11 -15 20 -9 12 -9 16 1 16 7 0 14 -9
14 -20z m53 -27 c-18 -12 -30 -13 -30 -2 0 4 10 9 22 9 18 2 20 0 8 -7z m-43
-22 c-3 -8 -6 -5 -6 6 -1 11 2 17 5 13 3 -3 4 -12 1 -19z m73 8 c0 -3 -4 -8
-10 -11 -5 -3 -10 -1 -10 4 0 6 5 11 10 11 6 0 10 -2 10 -4z m36 -22 c1 -9 0
-13 -4 -10 -3 4 -7 14 -8 22 -1 9 0 13 4 10 3 -4 7 -14 8 -22z m44 2 c0 -2 -7
-7 -16 -10 -8 -3 -12 -2 -9 4 6 10 25 14 25 6z m65 -6 c-3 -5 -12 -10 -18 -10
-7 0 -6 4 3 10 19 12 23 12 15 0z m-65 -40 c0 -5 -2 -10 -4 -10 -3 0 -8 5 -11
10 -3 6 -1 10 4 10 6 0 11 -4 11 -10z m-20 -25 c0 -8 -2 -15 -4 -15 -2 0 -6 7
-10 15 -3 8 -1 15 4 15 6 0 10 -7 10 -15z m64 -13 c3 -5 -1 -9 -9 -9 -8 0 -15
4 -15 9 0 4 4 8 9 8 6 0 12 -4 15 -8z m27 -75 c-10 -9 -11 -8 -5 6 3 10 9 15
12 12 3 -3 0 -11 -7 -18z m79 -3 c0 -8 -19 -13 -24 -6 -3 5 1 9 9 9 8 0 15 -2
15 -3z m-73 -38 c0 -8 -6 -12 -15 -9 -11 5 -11 7 0 14 7 5 13 9 14 9 0 0 1 -6
1 -14z m-4 -34 c14 -15 15 -19 2 -19 -8 0 -12 4 -9 9 3 4 0 8 -5 8 -6 0 -11 5
-11 10 0 14 5 13 23 -8z m17 -46 c0 -2 -9 -6 -20 -9 -11 -3 -18 -1 -14 4 5 9
34 13 34 5z m341 -533 c13 -17 13 -17 -5 -3 -18 14 -19 13 -14 -1 4 -9 1 -22
-5 -29 -9 -10 -8 -12 5 -7 10 3 20 1 24 -6 4 -7 4 -9 -1 -5 -4 4 -14 3 -20 -2
-9 -8 -15 -5 -20 7 -12 27 -14 44 -5 38 4 -3 10 2 14 10 7 19 11 19 27 -2z
m74 7 c-3 -5 -12 -10 -18 -10 -7 0 -6 4 3 10 19 12 23 12 15 0z m-25 -24 c0
-2 -6 -9 -14 -15 -11 -9 -16 -9 -22 0 -4 7 -3 9 4 5 6 -3 13 -2 17 4 6 10 15
14 15 6z m790 -31 c-14 -17 -30 -20 -30 -4 0 5 4 8 9 4 5 -3 12 -1 16 5 3 5 9
10 12 10 3 0 0 -7 -7 -15z m-793 -10 c0 -8 -4 -12 -9 -9 -5 3 -6 10 -3 15 9
13 12 11 12 -6z m43 11 c0 -2 -7 -7 -16 -10 -8 -3 -12 -2 -9 4 6 10 25 14 25
6z m724 -59 c-3 -9 -11 -17 -16 -17 -6 0 -5 6 2 15 10 12 10 18 -1 33 -12 16
-12 16 4 1 11 -9 15 -22 11 -32z m-760 15 c3 -5 -1 -9 -9 -9 -8 0 -12 4 -9 9
3 4 7 8 9 8 2 0 6 -4 9 -8z m719 -12 c4 0 5 5 2 10 -3 6 -1 10 5 10 24 0 2
-25 -22 -25 -18 -1 -24 3 -21 13 4 9 9 10 16 3 6 -6 15 -11 20 -11z m-718 -68
c-3 -3 -11 0 -18 7 -9 10 -8 11 6 5 10 -3 15 -9 12 -12z m530 -22 c3 -5 1 -10
-4 -10 -6 0 -11 5 -11 10 0 6 2 10 4 10 3 0 8 -4 11 -10z m34 -33 c0 -9 -2 -8
-6 1 -2 6 -10 9 -15 6 -7 -4 -8 -2 -4 5 9 13 26 5 25 -12z m-69 -47 c0 -5 -5
-10 -11 -10 -5 0 -7 5 -4 10 3 6 8 10 11 10 2 0 4 -4 4 -10z m35 -28 c-3 -3
-11 0 -18 7 -9 10 -8 11 6 5 10 -3 15 -9 12 -12z m-25 -71 c-6 -12 -9 -25 -6
-30 4 -6 -16 -7 -56 -2 -5 1 -8 6 -8 12 0 8 6 7 17 -2 15 -12 16 -12 10 4 -4
11 -3 16 3 12 6 -3 10 0 10 7 0 9 3 9 10 -2 8 -13 10 -12 11 5 1 11 1 25 -1
30 -1 6 4 5 10 -1 9 -9 9 -17 0 -33z m-20 24 c0 -7 -30 -13 -34 -7 -3 4 4 9
15 9 10 1 19 0 19 -2z m-75 -73 c-3 -3 -11 0 -18 7 -9 10 -8 11 6 5 10 -3 15
-9 12 -12z m-102 -15 c-4 -6 1 -8 11 -4 9 4 15 3 11 -2 -3 -5 1 -12 7 -14 8
-4 9 -6 2 -6 -7 -1 -22 7 -34 17 -18 14 -19 19 -7 19 9 0 13 -5 10 -10z m-37
-6 c-4 -5 0 -12 6 -14 8 -3 6 -6 -4 -6 -18 -1 -24 10 -11 22 9 10 15 8 9 -2z
m-66 -11 c-8 -5 -19 -10 -25 -10 -5 0 -3 5 5 10 8 5 20 10 25 10 6 0 3 -5 -5
-10z"/>
<path d="M2860 2335 c-7 -8 -18 -15 -25 -15 -8 0 -12 -13 -11 -37 1 -25 6 -38
15 -38 21 0 23 38 4 53 -15 11 -15 12 -1 12 9 0 19 7 22 16 3 8 11 12 17 8 8
-4 9 -3 5 4 -9 15 -11 15 -26 -3z m-13 -65 c-1 -11 -5 -20 -9 -20 -10 0 -10 4
-2 24 8 22 13 20 11 -4z"/>
<path d="M2793 2196 c5 -15 24 -18 24 -3 0 8 -6 14 -14 14 -7 0 -12 -5 -10
-11z"/>
<path d="M2870 2550 c0 -6 7 -10 15 -10 8 0 15 2 15 4 0 2 -7 6 -15 10 -8 3
-15 1 -15 -4z"/>
<path d="M2923 2423 c-7 -2 -13 -12 -13 -21 1 -15 2 -15 11 1 6 9 15 14 21 11
7 -4 8 -2 4 4 -4 7 -8 12 -9 11 -1 0 -8 -3 -14 -6z"/>
<path d="M2894 2258 c-4 -7 -4 -10 1 -6 4 4 15 2 24 -5 14 -11 14 -10 2 6 -16
20 -18 21 -27 5z"/>
<path d="M2819 2108 c-7 -24 -4 -34 12 -35 10 -1 21 2 24 7 2 4 -3 7 -13 6 -9
0 -16 5 -14 12 2 10 -6 19 -9 10z"/>
<path d="M2745 2090 c3 -6 12 -10 20 -10 7 0 15 -5 17 -12 3 -7 7 -4 12 7 4
11 4 16 1 13 -4 -4 -18 -3 -32 3 -16 6 -22 6 -18 -1z"/>
<path d="M580 1592 c0 -15 22 -30 36 -25 11 4 12 9 3 19 -12 15 -39 19 -39 6z"/>
<path d="M2429 1443 c-13 -16 -12 -17 4 -4 9 7 17 15 17 17 0 8 -8 3 -21 -13z"/>
<path d="M1714 488 c-4 -7 -3 -8 4 -4 7 4 12 2 12 -5 0 -7 3 -9 7 -6 3 4 13 1
21 -6 13 -9 14 -9 8 0 -12 22 -44 34 -52 21z"/>
<path d="M1592 363 c-18 -13 -37 -21 -43 -17 -8 4 -9 3 -5 -4 4 -7 2 -12 -5
-12 -7 0 -2 -9 11 -20 25 -22 35 -26 25 -10 -3 6 -1 11 4 11 6 1 17 2 24 3 6
1 15 -3 19 -9 5 -6 8 -3 8 8 0 14 -6 16 -27 13 -26 -5 -27 -4 -9 9 11 8 30 13
43 11 13 -3 21 -1 18 4 -3 4 0 10 6 12 6 2 0 9 -13 15 -21 9 -29 7 -56 -14z
m52 -5 c-4 -7 -9 -6 -14 1 -5 8 -17 3 -38 -17 -17 -16 -34 -27 -36 -24 -9 9
67 60 81 55 7 -3 10 -10 7 -15z"/>
<path d="M1477 333 c-4 -3 -7 -11 -7 -17 0 -6 5 -5 12 2 6 6 9 14 7 17 -3 3
-9 2 -12 -2z"/>
</g>
</svg>
